#N canvas 455 94 502 526 12;
#X obj 201 241 *~;
#X obj 201 310 rifft~;
#X obj 24 18 inlet;
#X obj 201 83 *~;
#X obj 201 421 *~;
#X obj 24 47 switch~ \$1 \$2 \$3;
#X obj 222 49 fd_winreceive~ \$4 \$1;
#X obj 222 393 fd_winreceive~ \$4 \$1;
#X obj 314 254 loadbang;
#X obj 294 290 f \$1;
#X obj 201 344 *~;
#X obj 275 323 expr 1/(3*$f1/2);
#X floatatom 289 347 5 0 0 0 - - -, f 5;
#X text 44 154 takes fft -->;
#X text 48 309 take ifft -->;
#X text 39 342 'normalize';
#X text 45 407 window again;
#X text 46 118 apply window;
#X obj 201 23 inlet~ signal;
#X obj 201 458 outlet~ filtered;
#X obj 277 204 tabreceive~ stuff;
#X obj 201 112 rfft~;
#X obj 201 137 *~;
#X obj 234 136 *~;
#X obj 201 162 sqrt~;
#X text 51 184 mag spec -->;
#X obj 201 207 rfft~;
#X text 44 212 takes fft -->;
#X text 49 238 ceps*ceps-->;
#X obj 201 266 rifft~;
#X text 48 269 take ifft -->;
#X text 291 156 Note: receives 'stuff';
#X connect 0 0 29 0;
#X connect 1 0 10 0;
#X connect 2 0 5 0;
#X connect 3 0 21 0;
#X connect 4 0 19 0;
#X connect 6 0 3 1;
#X connect 7 0 4 1;
#X connect 8 0 9 0;
#X connect 9 0 11 0;
#X connect 10 0 4 0;
#X connect 11 0 10 1;
#X connect 11 0 12 0;
#X connect 18 0 3 0;
#X connect 20 0 0 1;
#X connect 21 0 22 0;
#X connect 21 0 22 1;
#X connect 21 1 23 0;
#X connect 21 1 23 1;
#X connect 22 0 24 0;
#X connect 23 0 24 0;
#X connect 24 0 26 0;
#X connect 26 0 0 0;
#X connect 29 0 1 0;
