#N canvas 0 22 611 487 12;
#X obj 201 183 rfft~;
#X obj 201 228 *~;
#X obj 247 227 *~;
#X obj 201 270 rifft~;
#X obj 24 18 inlet;
#X obj 201 123 *~;
#X obj 201 421 *~;
#X obj 313 146 tabreceive~ real;
#X obj 314 176 tabreceive~ imag;
#X obj 24 47 switch~ \$1 \$2 \$3;
#X obj 222 89 fd_winreceive~ \$4 \$1;
#X obj 222 393 fd_winreceive~ \$4 \$1;
#X obj 314 254 loadbang;
#X obj 294 290 f \$1;
#X obj 201 344 *~;
#X obj 275 323 expr 1/(3*$f1/2);
#X floatatom 289 347 5 0 0 0 - - -, f 5;
#X text 44 186 takes fft -->;
#X text 15 226 real*real \, imag*imag;
#X text 48 269 take ifft -->;
#X text 39 342 'normalize';
#X text 45 407 window again;
#X text 46 118 apply window;
#X obj 201 23 inlet~ signal;
#X obj 201 458 outlet~ filtered;
#X text 301 118 Note: receives 'real' and 'imag';
#X connect 0 0 1 0;
#X connect 0 1 2 0;
#X connect 1 0 3 0;
#X connect 2 0 3 1;
#X connect 3 0 14 0;
#X connect 4 0 9 0;
#X connect 5 0 0 0;
#X connect 6 0 24 0;
#X connect 7 0 1 1;
#X connect 8 0 2 1;
#X connect 10 0 5 1;
#X connect 11 0 6 1;
#X connect 12 0 13 0;
#X connect 13 0 15 0;
#X connect 14 0 6 0;
#X connect 15 0 14 1;
#X connect 15 0 16 0;
#X connect 23 0 5 0;
