#N canvas 643 99 450 300 12;
#X obj 46 101 scaleXYZ 8 -6 0;
#X obj 46 126 translateXYZ -0.5 -0.5 0;
#X obj 46 261 gemvertexbuffer 256;
#X obj 46 48 inlet;
#X msg 220 237 draw \$1;
#X obj 83 195 symbol \$1;
#X obj 220 213 symbol \$2;
#X obj 46 151 t a b b;
#X obj 220 162 spigot 1;
#X obj 220 187 t b b;
#X msg 267 188 0;
#X text 40 22 simply draws the array \$1 with type \$2;
#X msg 85 222 position \$1;
#X obj 197 42 inlet;
#X obj 197 67 route list symbol;
#X obj 197 92 unpack;
#X obj 46 76 gemhead 10;
#X connect 0 0 1 0;
#X connect 1 0 7 0;
#X connect 3 0 16 0;
#X connect 4 0 2 0;
#X connect 5 0 12 0;
#X connect 6 0 4 0;
#X connect 7 0 2 0;
#X connect 7 1 5 0;
#X connect 7 2 8 0;
#X connect 8 0 9 0;
#X connect 9 0 6 0;
#X connect 9 1 10 0;
#X connect 10 0 8 1;
#X connect 12 0 2 0;
#X connect 13 0 14 0;
#X connect 14 0 15 0;
#X connect 14 1 5 1;
#X connect 15 0 1 1;
#X connect 15 1 1 2;
#X connect 16 0 0 0;
