#N canvas 490 59 787 622 12;
#X obj 161 97 array get imag \$1 1;
#X obj 161 122 fd_norm;
#X obj 161 179 + 41;
#X obj 161 154 * 35;
#X obj 161 204 pack f 10;
#X obj 161 228 line~;
#X obj 161 307 phasor~;
#X obj 161 388 +~;
#X obj 161 413 cos~;
#X obj 261 294 pack f 10;
#X obj 261 319 line~;
#X obj 261 122 array get real \$1 1;
#X obj 323 17 inlet;
#X obj 445 130 fd_norm;
#X obj 445 180 + 41;
#X obj 445 155 * 35;
#X obj 445 205 pack f 10;
#X obj 445 230 line~;
#X obj 445 277 phasor~;
#X obj 445 378 +~;
#X obj 445 403 cos~;
#X obj 555 206 pack f 10;
#X obj 555 231 line~;
#X obj 265 409 cos~;
#X obj 555 403 cos~;
#X obj 445 105 array get real \$1 1;
#X obj 549 159 array get imag \$1 1;
#X obj 323 50 t b b b b;
#X obj 157 479 throw~ out-1;
#X obj 268 478 throw~ out-2;
#X obj 445 468 throw~ out-3;
#X obj 555 468 throw~ out-4;
#X obj 161 283 mtof~;
#X obj 445 255 mtof~;
#X obj 161 438 *~ 0.01;
#X obj 265 434 *~ 0.01;
#X obj 445 428 *~ 0.01;
#X obj 555 428 *~ 0.01;
#X text 28 96 get value at x;
#X text 28 116 normalize 0-1;
#X text 29 185 turn to midi;
#X text 144 149 ||||||, f 1;
#X text 29 282 convert to Hz;
#X text 70 310 oscillator;
#X text 41 386 with phase;
#X text 54 327 (phasor+cos);
#X text 237 254 make real (x) the phase;
#X text 462 53 invertly \, imag(x) is phase;
#X text 278 507 unphased;
#X text 168 507 phased;
#X text 151 538 phase diff makes it nicer in space;
#X text 578 507 unphased;
#X text 468 507 phased;
#X text 39 481 throw signal;
#X text 48 500 (to mixer);
#X text 17 17 Note: x = argument = index (0-128);
#X connect 0 0 1 0;
#X connect 1 0 3 0;
#X connect 2 0 4 0;
#X connect 3 0 2 0;
#X connect 4 0 5 0;
#X connect 5 0 32 0;
#X connect 6 0 7 0;
#X connect 6 0 23 0;
#X connect 7 0 8 0;
#X connect 8 0 34 0;
#X connect 9 0 10 0;
#X connect 10 0 7 1;
#X connect 11 0 9 0;
#X connect 12 0 27 0;
#X connect 13 0 15 0;
#X connect 14 0 16 0;
#X connect 15 0 14 0;
#X connect 16 0 17 0;
#X connect 17 0 33 0;
#X connect 18 0 19 0;
#X connect 18 0 24 0;
#X connect 19 0 20 0;
#X connect 20 0 36 0;
#X connect 21 0 22 0;
#X connect 22 0 19 1;
#X connect 23 0 35 0;
#X connect 24 0 37 0;
#X connect 25 0 13 0;
#X connect 26 0 21 0;
#X connect 27 0 0 0;
#X connect 27 1 11 0;
#X connect 27 2 25 0;
#X connect 27 3 26 0;
#X connect 32 0 6 0;
#X connect 33 0 18 0;
#X connect 34 0 28 0;
#X connect 35 0 29 0;
#X connect 36 0 30 0;
#X connect 37 0 31 0;
