#N canvas 524 52 366 246 12;
#X declare -path ./lib -path ./lib/abs -path ./lib/fd_lib;
#N canvas 0 22 450 300 init 0;
#X obj 45 34 declare -path ./lib -path ./lib/abs -path ./lib/fd_lib
;
#X obj 56 77 loadbang;
#X msg 56 102 \; pd dsp 1 \; sub 1 \;;
#X connect 1 0 2 0;
#X restore 30 23 pd init;
#N canvas 563 286 556 460 _sub 0;
#X obj 69 110 r to-sub;
#X obj 141 275 array set real;
#X obj 186 252 array set imag;
#X obj 53 158 pd~ -ninsig 0 -noutsig 0 -fifo 20;
#X obj 90 302 array set raw;
#X msg 53 74 pd~ start _sub.pd;
#X msg 151 107 pd~ stop;
#X obj 92 215 route raw imag real stuff;
#X obj 314 295 t a a;
#X obj 384 318 array size stuff;
#X obj 383 266 list length;
#X obj 383 291 change;
#X obj 313 354 array set stuff;
#X obj 53 183 t b a;
#X obj 58 364 s done_get;
#X obj 53 23 inlet;
#X obj 53 48 sel 1 0;
#X connect 0 0 3 0;
#X connect 3 0 13 0;
#X connect 5 0 3 0;
#X connect 6 0 3 0;
#X connect 7 0 4 0;
#X connect 7 1 1 0;
#X connect 7 2 2 0;
#X connect 7 3 8 0;
#X connect 8 0 12 0;
#X connect 8 1 10 0;
#X connect 10 0 11 0;
#X connect 11 0 9 0;
#X connect 13 0 14 0;
#X connect 13 1 7 0;
#X connect 15 0 16 0;
#X connect 16 0 5 0;
#X connect 16 1 6 0;
#X restore 32 78 pd _sub;
#N canvas 0 22 450 300 audio 0;
#X obj 63 65 array define imag 128;
#X obj 65 90 array define real 128;
#X obj 64 116 array define raw 256;
#X obj 65 143 array define stuff 130;
#X restore 94 23 pd audio arrays;
#X text 102 55 <-- this opens a subprocess that runs "_sub.pd", f
17;
#N canvas 247 22 766 557 audio 0;
#X obj 33 296 tgl 15 0 empty empty onoff 17 7 0 10 -262144 -1 -1 0
1;
#X obj 33 444 *~ 0.01;
#X floatatom 86 391 5 0 0 0 dB - -, f 5;
#X obj 86 413 dbtorms;
#X obj 40 73 tgl 15 0 empty empty empty 17 7 0 10 -262144 -1 -1 0 1
;
#N canvas 0 22 450 300 lorenz_noise 0;
#X obj 66 92 lorenz;
#X obj 66 117 unpack f f f;
#X obj 66 142 fd_norm;
#X obj 66 167 vline~;
#X obj 66 192 +~;
#X obj 136 142 fd_norm;
#X obj 136 167 vline~;
#X obj 206 142 fd_norm;
#X obj 206 167 vline~;
#X obj 206 192 +~;
#X obj 136 192 +~;
#X obj 66 217 *~ 0.33;
#X obj 66 67 metro 1 1 samp;
#X obj 66 37 t f f;
#X obj 65 12 inlet;
#X obj 143 34 switch~;
#X obj 66 267 throw~ input_sig;
#X connect 0 0 1 0;
#X connect 1 0 2 0;
#X connect 1 1 5 0;
#X connect 1 2 7 0;
#X connect 2 0 3 0;
#X connect 3 0 4 0;
#X connect 4 0 11 0;
#X connect 5 0 6 0;
#X connect 6 0 10 0;
#X connect 7 0 8 0;
#X connect 8 0 9 0;
#X connect 9 0 10 1;
#X connect 10 0 4 1;
#X connect 11 0 16 0;
#X connect 12 0 0 0;
#X connect 13 0 12 0;
#X connect 13 1 15 0;
#X connect 14 0 13 0;
#X restore 41 99 pd lorenz_noise;
#X obj 349 72 tgl 15 0 empty empty empty 17 7 0 10 -262144 -1 -1 0
1;
#N canvas 0 22 450 300 uniform_noise 0;
#X obj 110 30 inlet;
#X obj 112 73 switch~;
#X obj 66 142 noise~;
#X obj 66 198 throw~ input_sig;
#X connect 0 0 1 0;
#X connect 2 0 3 0;
#X restore 350 98 pd uniform_noise;
#X obj 181 71 tgl 15 0 empty empty empty 17 7 0 10 -262144 -1 -1 0
1;
#N canvas 0 22 450 300 cuadratic_noise 0;
#X obj 66 142 fd_norm;
#X obj 66 167 vline~;
#X obj 66 67 metro 1 1 samp;
#X obj 66 37 t f f;
#X obj 65 12 inlet;
#X obj 143 34 switch~;
#X obj 66 92 cuadratic;
#X obj 66 267 throw~ input_sig;
#X connect 0 0 1 0;
#X connect 1 0 7 0;
#X connect 2 0 6 0;
#X connect 3 0 2 0;
#X connect 3 1 5 0;
#X connect 4 0 3 0;
#X connect 6 0 0 0;
#X restore 182 97 pd cuadratic_noise;
#X obj 508 67 tgl 15 0 empty empty empty 17 7 0 10 -262144 -1 -1 0
1;
#N canvas 593 96 450 300 oscillator 0;
#X obj 55 16 inlet;
#X obj 54 45 switch~;
#X obj 69 155 osc~ 440;
#X obj 66 241 throw~ input_sig;
#X connect 0 0 1 0;
#X connect 2 0 3 0;
#X restore 509 93 pd oscillator;
#X obj 604 20 catch~ input_sig;
#X obj 604 45 s~ input_signal;
#X obj 190 312 r~ input_signal;
#X text 30 27 Choose input signal: _______________________________________
;
#X text 37 217 Choose type of process:____________________________________
;
#X obj 393 296 tgl 15 0 empty empty onoff 17 7 0 10 -262144 -1 -1 0
1;
#X obj 550 312 r~ input_signal;
#X msg 636 374 cepstrum;
#X obj 552 429 symbol;
#X msg 553 503 \; to-sub stuff_graph \$1;
#X msg 636 399 bfcc;
#X obj 395 436 *~ 0.01;
#X floatatom 448 383 5 0 0 0 dB - -, f 5;
#X obj 448 405 dbtorms;
#X obj 33 343 _filter 2048 8 0 hann;
#X obj 396 345 _cepsfilt 2048 8 0 expo;
#X msg 639 427 magSpec;
#X msg 647 446 barkSpec;
#X msg 650 471 dct;
#X obj 395 472 throw~ out-1;
#X obj 405 492 throw~ out-2;
#X obj 33 480 throw~ out-3;
#X obj 43 500 throw~ out-4;
#X text 561 373 change:;
#X connect 0 0 26 0;
#X connect 1 0 33 0;
#X connect 1 0 34 0;
#X connect 2 0 3 0;
#X connect 3 0 1 1;
#X connect 4 0 5 0;
#X connect 6 0 7 0;
#X connect 8 0 9 0;
#X connect 10 0 11 0;
#X connect 12 0 13 0;
#X connect 14 0 26 1;
#X connect 17 0 27 0;
#X connect 18 0 27 1;
#X connect 19 0 20 0;
#X connect 20 0 21 0;
#X connect 22 0 20 0;
#X connect 23 0 31 0;
#X connect 23 0 32 0;
#X connect 24 0 25 0;
#X connect 25 0 23 1;
#X connect 26 0 1 0;
#X connect 27 0 23 0;
#X connect 28 0 20 0;
#X connect 29 0 20 0;
#X connect 30 0 20 0;
#X restore 29 128 pd audio tests;
#N canvas 85 261 1130 450 controls 0;
#X msg 846 96 dct;
#X msg 846 76 magSpec;
#X msg 846 136 barkSpec;
#X msg 846 116 cepstrum;
#X msg 846 156 bfcc;
#X msg 846 176 melSpec;
#X msg 403 122 tolerance \$1;
#X floatatom 403 95 5 0 0 0 - - -, f 5;
#X floatatom 315 95 5 0 0 0 - - -, f 5;
#X msg 315 122 clamp \$1;
#X msg 224 122 filter \$1;
#X floatatom 224 95 5 0 0 0 - - -, f 5;
#X obj 57 60 tgl 15 0 empty empty empty 17 7 0 10 -262144 -1 -1 0 1
;
#X msg 57 81 \; to-sub detect \$1;
#X obj 116 152 tgl 15 0 empty empty empty 17 7 0 10 -262144 -1 -1 0
1;
#X msg 116 173 \; to-sub draw_face \$1;
#X obj 220 333 tgl 15 0 empty empty empty 17 7 0 10 -262144 -1 -1 0
1;
#X obj 382 333 tgl 15 0 empty empty empty 17 7 0 10 -262144 -1 -1 0
1;
#X msg 382 354 \; to-sub draw_imag \$1;
#X msg 220 354 \; to-sub draw_real \$1;
#X obj 610 70 tgl 15 0 empty empty empty 17 7 0 10 -262144 -1 -1 0
1;
#X msg 610 91 \; to-sub draw_stuff \$1;
#X obj 846 201 list prepend stuff_graph;
#X obj 846 251 s to-sub;
#X obj 846 226 list trim;
#X obj 317 162 list prepend facetracker;
#X obj 317 189 list trim;
#X obj 317 214 s to-sub;
#X text 223 79 def:5;
#X text 313 76 def:3;
#X text 407 76 def:0.01;
#X floatatom 610 138 5 -0.5 0.5 0 - - -, f 5;
#X text 657 136 shift+drag;
#X obj 64 282 tgl 15 0 empty empty empty 17 7 0 10 -262144 -1 -1 0
1;
#X msg 64 303 \; to-sub fft \$1;
#X text 62 176 draw:;
#X text 156 358 draw:;
#X text 841 48 draw:;
#X obj 626 321 tgl 15 0 empty empty empty 17 7 0 10 -262144 -1 -1 0
1;
#X msg 624 350 \; to-sub sendout \$1;
#X msg 527 116 reset;
#X text 614 23 other stuff: ______________________________________
;
#X text 49 19 detection: _______________________________________________
;
#X text 53 258 ffc calculate: _________________________________________
;
#X text 217 52 other facetrack parameters:_______________;
#X text 613 295 enable writing to audio arrays _______________:;
#X obj 611 204 loadbang;
#X msg 611 162 \; to-sub stuff_pos \$1 -0.4;
#X connect 0 0 22 0;
#X connect 1 0 22 0;
#X connect 2 0 22 0;
#X connect 3 0 22 0;
#X connect 4 0 22 0;
#X connect 5 0 22 0;
#X connect 6 0 25 0;
#X connect 7 0 6 0;
#X connect 8 0 9 0;
#X connect 9 0 25 0;
#X connect 10 0 25 0;
#X connect 11 0 10 0;
#X connect 12 0 13 0;
#X connect 14 0 15 0;
#X connect 16 0 19 0;
#X connect 17 0 18 0;
#X connect 20 0 21 0;
#X connect 22 0 24 0;
#X connect 24 0 23 0;
#X connect 25 0 26 0;
#X connect 26 0 27 0;
#X connect 31 0 47 0;
#X connect 33 0 34 0;
#X connect 38 0 39 0;
#X connect 40 0 25 0;
#X connect 46 0 47 0;
#X restore 29 180 pd controls;
#N canvas 596 91 450 300 mixer 0;
#X obj 45 246 dac~ 1 2 3 4 5 6 7 8;
#X obj 78 91 catch~ out-1;
#X obj 88 111 catch~ out-2;
#X obj 98 131 catch~ out-3;
#X obj 109 152 catch~ out-4;
#X obj 308 157 dbtorms;
#X msg 308 182 \$1 10;
#X obj 224 157 line~;
#X obj 72 192 *~;
#X obj 102 192 *~;
#X obj 132 192 *~;
#X obj 162 192 *~;
#X obj 300 122 inlet;
#X connect 1 0 8 0;
#X connect 2 0 9 0;
#X connect 3 0 10 0;
#X connect 4 0 11 0;
#X connect 5 0 6 0;
#X connect 6 0 7 0;
#X connect 7 0 8 1;
#X connect 7 0 9 1;
#X connect 7 0 10 1;
#X connect 7 0 11 1;
#X connect 8 0 0 0;
#X connect 8 0 0 6;
#X connect 9 0 0 1;
#X connect 9 0 0 3;
#X connect 10 0 0 7;
#X connect 10 0 0 5;
#X connect 11 0 0 2;
#X connect 11 0 0 4;
#X connect 12 0 5 0;
#X restore 281 195 pd mixer;
#N canvas 563 269 447 284 audio 0;
#X obj 48 32 r done_get;
#X msg 48 57 all bang;
#X obj 50 129 clone _ir-partial 128;
#X text 63 99 'clones' the partial 0...127 times;
#X connect 0 0 1 0;
#X connect 1 0 2 0;
#X restore 29 154 pd audio imaginary;
#X obj 32 55 tgl 15 0 empty sub sub 17 7 0 10 -262144 -1 -1 1 1;
#X obj 288 27 vsl 15 128 0 127 0 0 empty empty empty 0 -9 0 10 -262144
-1 -1 900 1;
#X text 148 129 <-- see here;
#X connect 8 0 1 0;
#X connect 9 0 6 0;
